<?xml version="1.0" encoding="UTF-8"?>
<svg id="Layer_1" data-name="Layer 1" xmlns="http://www.w3.org/2000/svg" viewBox="0 0 476.18 463.56">
  <defs>
    <style>
      .cls-1 {
        fill: #5ab6e7;
        stroke: #fff;
        stroke-miterlimit: 10;
        stroke-width: 5px;
      }

      .cls-2 {
        fill: #5792cd;
      }

      .cls-3 {
        fill: #cbcae6;
      }

      .cls-4 {
        fill: #231f20;
      }
    </style>
  </defs>
  <path id="Cloud" class="cls-1" d="m6.29,258.11s3.92-6.47,10.85-9.2c6.93-2.73,7.47-2.46,10.75-4.19,3.28-1.73,13.58-6.56,15.58-7.75s10.75-6.47,14.13-6.11,21.05,4.01,21.05,4.01l4.28.73s3.46-6.74,4.65-7.93,13.76-12.3,18.96-14.13,9.57-2.37,9.57-2.37l24.06,1.64s9.2,1.37,14.67,6.84c5.47,5.47,10.39,13.31,10.66,15.68s.46,7.11.46,7.11v1.55s6.01-.27,8.29.18,11.67.46,16.4,6.11c4.74,5.65,6.2,9.84,6.38,10.85s-187.28,0-187.28,0l-5.04.45,1.57-3.45Z"/>
  <path id="Cloud_2" data-name="Cloud 2" class="cls-2" d="m359.52,191.4v-2.92s3.52-1.7,3.89-1.7,5.23-.49,6.2-1.09,5.71-5.1,8.14-6.2,7.41-3.77,10.69-3.77h8.87s4.74,1.94,5.59,2.31,2.07.97,2.07.97c0,0,2.07-5.35,3.65-7.05s6.56-4.62,7.05-4.74,4.25-2.31,6.44-2.67,6.93-1.58,11.3-1.09,10.69,1.46,12.64,2.92,8.51,7.66,8.51,7.66c0,0,1.94,5.47,2.19,7.53s5.1,2.67,6.93,2.92,9.36,3.65,9.36,3.65c0,0,1.22,2.19,1.94,3.28s1.22,2.67,1.22,2.67h-116.65"/>
  <path id="Left" class="cls-4" d="m117.47,81.31s11.67-20.05,20.78-27.34,18.96-17.5,24.06-20.41,19.32-10.57,29.53-12.76,22.97-6.2,28.43-6.2,24.79-1.09,28.07,0,41.56,9.84,41.56,9.84l-14.58,20.05s-4.74-.12-4.74,3.22-1.46,3.34,1.82,10.27c3.28,6.93,4.01,15.68,3.65,18.59-.36,2.92-6.2,9.48-6.2,9.48,0,0-7.11-.55-15.31-3.28s-15.13-4.01-21.51-3.83-19.69.73-30.44,7.11c-10.75,6.38-20.96,14.76-22.05,16.77s-17.5,17.5-17.68,40.46c-.18,22.97,3.83,31.35,6.56,37s15.68,25.34,31.17,31.53c15.49,6.2,30.62,11.12,43.02,8.57l12.39-2.55s-14.95,20.96-16.04,25.88,3.28,16.4,3.28,16.4l20.6,57.96s4.92,8.93.73,14.4c-4.19,5.47-30.99,41.74-30.99,41.74l-85.55-113.31,49.09-.12s-2.86-12.58-14.16-14.76c-11.3-2.19-15.86-2.61-15.86-2.61l-1.09-2.25s-2-12.46-3.71-13.61-9.24-11.48-19.38-13.85c-10.15-2.37-27.28-3.46-27.28-3.46,0,0-3.89-1.58-7.29-10.33-3.4-8.75-9.24-37.43-9.6-42.17s-1.94-15.19-1.09-17.25,2.07-5.95,1.82-7.29.49-11.54,1.82-16.53,16.16-35.36,16.16-35.36Z"/>
  <path id="Right" class="cls-4" d="m262.92,257.14c-.24-.97-2.43-9.6-2.31-15.31.12-5.71,2.43-10.21,3.77-11.3s7.53-12.15,10.94-13.85,1.82-2.07,12.64-5.95,23.94-14.95,26.61-18.59,12.64-17.25,14.22-25.76c1.58-8.51,4.37-20.54,3.16-26.73-1.22-6.2-5.47-24.91-7.9-28.19s-17.13-21.75-18.47-23.33-4.62-2.31-1.34-5.83,4.62-5.23,5.59-8.75c.97-3.52.61-11.3-.85-17.98s-1.46-13,3.77-15.92,6.2-6.56,12.76-7.9c6.56-1.34,5.23-5.35,13.85,2.31,8.63,7.66,25.4,25.4,27.71,28.07s9.96,13.12,9.96,13.12c0,0,3.89,6.56,4.13,6.93s7.17,17.98,7.41,19.08,5.47,19.32,6.44,27.1,2.79,13.97,2.07,18.96-3.52,24.3-3.52,24.3l-3.65.36-8.14,3.04-6.44,2.79-6.44,2.19-4.86,2.31-6.8,4.5-4.25,3.65-.61,7.29.97,1.46,4.86.24,13.85-.61,6.08,1.46,1.94,1.09s2.07.73.85,3.4c-1.22,2.67-5.83,10.21-5.83,10.21,0,0-12.76,20.41-14.82,22.24s-24.79,26.98-26.37,28.31-41.07,44.6-41.44,45.2-5.35,8.26-5.35,8.26l-5.1,3.77-4.37-4.86-14.7-60.76Z"/>
  <path id="Shadow" class="cls-3" d="m70.26,378.23c7.11-1.82,17.5-3.83,23.88-4.56s29.71-3.1,30.8-3.1,29.89-1.82,29.89-1.82l53.59-2h17.86l7.47,6.93,4.92-5.65,14.22-1.28s31.17.18,44.66,1.09,26.79,1.09,39.92,2.19c13.12,1.09,36.64,2.73,47.03,5.29s18.59,3.65,21.33,6.38,1.46,5.1-11.3,8.02c-12.76,2.92-46.3,9.3-56.14,9.48s-59.97,2.73-71.63,2.37-88.4.62-98.61.04-32.81-2.04-38.64-3.13-33.72-2.92-38.64-4.01-15.49-2-20.6-4.19c-5.1-2.19-9.66-3.79-9.48-5.99s9.48-6.04,9.48-6.04Z"/>
  <path d="m211.23,141.05c-.08,2.28-.2,4.55-.32,6.83-3.19.14-6.39.28-9.58.42,3.72-6.39,5.87-13.55,6.37-21.18.42-6.43-9.59-6.4-10,0-.57,8.76-4.15,16.75-10.19,23.1-2.85,3-.94,8.73,3.54,8.54,6.39-.28,12.78-.56,19.16-.84-.13,1.49-.26,2.97-.4,4.46-.63,6.4,9.38,6.36,10,0,.69-7.09,1.17-14.2,1.43-21.32.24-6.44-9.76-6.43-10,0Z"/>
  <path d="m256.05,141.15c-.46-4.93-1.27-10.15-4.93-13.81-3.36-3.35-8.28-4.76-12.72-2.77-8.51,3.81-8.71,14.26-7.66,22.94.18,1.13.19,1.98.4,2.85,1.68,7.07,4.71,24.97,16.07,19.64,9.3-4.36,9.62-20.39,8.83-28.86Zm-10.05,11.07c-.2,1.34-.3,2.77-.71,4.06-.18.57-.44,1.56-1.34,2.29-.64-.29-1.49-1.46-1.66-2-.62-1.94-1.11-3.82-1.52-5.85-.59-3.36-2.12-13.37.66-16.09,4.08-4,4.81,8.42,4.87,10.66.06,2.3.04,4.65-.31,6.93Z"/>
  <path d="m286.95,142.53c-.08,2.28-.2,4.55-.32,6.83-3.19.14-6.39.28-9.58.42,3.72-6.39,5.87-13.55,6.37-21.18.42-6.43-9.59-6.4-10,0-.57,8.76-4.15,16.75-10.19,23.1-2.85,3-.94,8.73,3.54,8.54,6.39-.28,12.78-.56,19.16-.84-.13,1.49-.26,2.97-.4,4.46-.63,6.4,9.38,6.36,10,0,.69-7.09,1.17-14.2,1.43-21.32.24-6.44-9.76-6.43-10,0Z"/>
</svg>